<svg width="138" height="19" viewBox="0 0 138 19" fill="none" xmlns="http://www.w3.org/2000/svg">
<path fill-rule="evenodd" clip-rule="evenodd" d="M137.974 2.60858C137.509 3.33742 136.948 3.9732 136.311 4.49136C136.311 4.68176 136.311 4.87215 136.311 5.07312C136.314 6.78478 136.027 8.47992 135.467 10.0599C134.908 11.6398 134.087 13.0729 133.053 14.2759C132.018 15.4788 130.791 16.4274 129.442 17.0666C128.093 17.7057 126.649 18.0226 125.195 17.9987C123.497 18.0054 121.821 17.5493 120.297 16.666C120.257 16.6453 120.223 16.6113 120.199 16.5681C120.175 16.5249 120.162 16.4743 120.162 16.4227V16.3064C120.162 16.2334 120.187 16.1635 120.231 16.1119C120.275 16.0603 120.334 16.0313 120.396 16.0313C122.065 15.9666 123.675 15.2858 124.997 14.0851C124.257 14.0676 123.536 13.804 122.917 13.3249C122.299 12.8458 121.808 12.1706 121.501 11.3773C121.486 11.3338 121.48 11.2863 121.485 11.2395C121.489 11.1926 121.504 11.1479 121.527 11.1096C121.551 11.0714 121.582 11.0409 121.619 11.0211C121.655 11.0013 121.695 10.9928 121.735 10.9965C122.194 11.0508 122.658 11.0005 123.101 10.8484C122.288 10.6499 121.55 10.1526 120.993 9.42831C120.435 8.70401 120.088 7.7901 120.001 6.8184C119.998 6.77137 120.005 6.72418 120.022 6.68137C120.038 6.63856 120.064 6.60156 120.097 6.57394C120.129 6.54632 120.167 6.529 120.207 6.52365C120.247 6.5183 120.287 6.5251 120.324 6.54338C120.772 6.77573 121.255 6.8981 121.744 6.90302C121.033 6.35428 120.497 5.54395 120.219 4.59862C119.941 3.65328 119.937 2.62618 120.207 1.67776C120.236 1.5846 120.284 1.50166 120.348 1.43705C120.411 1.37244 120.488 1.32838 120.57 1.30919C120.653 1.29 120.738 1.29633 120.818 1.32756C120.897 1.3588 120.969 1.41386 121.025 1.48737C122.997 3.95665 125.707 5.42808 128.583 5.59142C128.509 5.24559 128.473 4.89019 128.475 4.53367C128.488 3.61962 128.732 2.73079 129.175 1.98007C129.618 1.22934 130.241 0.650603 130.964 0.317347C131.687 -0.0159097 132.479 -0.0886445 133.237 0.10838C133.995 0.305404 134.687 0.763298 135.224 1.42391C135.972 1.25616 136.696 0.960379 137.372 0.545979C137.396 0.528159 137.424 0.518712 137.452 0.518712C137.481 0.518712 137.509 0.528159 137.533 0.545979C137.548 0.574534 137.557 0.607517 137.557 0.641176C137.557 0.674834 137.548 0.707817 137.533 0.736372C137.206 1.61811 136.653 2.35765 135.952 2.85186C136.566 2.76806 137.169 2.5976 137.749 2.34414C137.773 2.32504 137.801 2.31483 137.83 2.31483C137.859 2.31483 137.887 2.32504 137.911 2.34414C137.931 2.35502 137.949 2.37094 137.963 2.39081C137.978 2.41068 137.988 2.43401 137.994 2.45918C138 2.48436 138.002 2.51076 137.998 2.53657C137.994 2.56237 137.986 2.58694 137.974 2.60858Z" fill="#949494"/>
<path d="M9.5 3.07686H6.5C6.23478 3.07686 5.98043 3.18219 5.79289 3.36968C5.60536 3.55717 5.5 3.81146 5.5 4.07661V7.07583H9.5C9.55605 7.07459 9.61157 7.08682 9.66191 7.11151C9.71224 7.13619 9.7559 7.1726 9.78922 7.21767C9.82255 7.26274 9.84455 7.31516 9.85339 7.37051C9.86223 7.42585 9.85763 7.48251 9.84 7.53571L9.1 9.73515C9.06673 9.83363 9.00359 9.91929 8.91935 9.98021C8.83511 10.0411 8.73397 10.0743 8.63 10.0751H5.5V17.5731C5.5 17.7057 5.44732 17.8328 5.35355 17.9266C5.25979 18.0203 5.13261 18.073 5 18.073H2.5C2.36739 18.073 2.24021 18.0203 2.14645 17.9266C2.05268 17.8328 2 17.7057 2 17.5731V10.0751H0.5C0.367392 10.0751 0.240215 10.0224 0.146447 9.92865C0.0526785 9.83491 0 9.70776 0 9.57519V7.5757C0 7.44313 0.0526785 7.31599 0.146447 7.22224C0.240215 7.1285 0.367392 7.07583 0.5 7.07583H2V4.07661C2 3.01601 2.42143 1.99886 3.17157 1.24891C3.92172 0.498955 4.93913 0.0776367 6 0.0776367H9.5C9.63261 0.0776367 9.75979 0.130302 9.85355 0.224046C9.94732 0.31779 10 0.444934 10 0.577508V2.57699C10 2.70957 9.94732 2.83671 9.85355 2.93045C9.75979 3.0242 9.63261 3.07686 9.5 3.07686Z" fill="#949494"/>
<path d="M69 0.0776367H61C59.6739 0.0776367 58.4021 0.604285 57.4645 1.54173C56.5268 2.47917 56 3.75061 56 5.07635V13.0743C56 14.4 56.5268 15.6715 57.4645 16.6089C58.4021 17.5464 59.6739 18.073 61 18.073H69C70.3261 18.073 71.5979 17.5464 72.5355 16.6089C73.4732 15.6715 74 14.4 74 13.0743V5.07635C74 3.75061 73.4732 2.47917 72.5355 1.54173C71.5979 0.604285 70.3261 0.0776367 69 0.0776367ZM72.25 13.0743C72.2474 13.9352 71.9041 14.7601 71.2952 15.3689C70.6863 15.9776 69.8611 16.3208 69 16.3234H61C60.1389 16.3208 59.3137 15.9776 58.7048 15.3689C58.0959 14.7601 57.7526 13.9352 57.75 13.0743V5.07635C57.7526 4.21543 58.0959 3.39052 58.7048 2.78176C59.3137 2.17299 60.1389 1.82982 61 1.82719H69C69.8611 1.82982 70.6863 2.17299 71.2952 2.78176C71.9041 3.39052 72.2474 4.21543 72.25 5.07635V13.0743ZM70.75 4.32654C70.75 4.52427 70.6914 4.71756 70.5815 4.88197C70.4716 5.04638 70.3154 5.17451 70.1327 5.25018C69.95 5.32585 69.7489 5.34565 69.5549 5.30707C69.3609 5.2685 69.1827 5.17328 69.0429 5.03347C68.903 4.89365 68.8078 4.71551 68.7692 4.52158C68.7306 4.32765 68.7504 4.12664 68.8261 3.94396C68.9018 3.76128 69.03 3.60514 69.1944 3.49529C69.3589 3.38543 69.5522 3.3268 69.75 3.3268C70.0152 3.3268 70.2696 3.43213 70.4571 3.61962C70.6446 3.80711 70.75 4.06139 70.75 4.32654ZM65 4.57648C64.11 4.57648 63.24 4.84033 62.4999 5.33467C61.7599 5.82901 61.1831 6.53163 60.8425 7.35369C60.5019 8.17574 60.4128 9.08031 60.5865 9.953C60.7601 10.8257 61.1887 11.6273 61.818 12.2565C62.4474 12.8857 63.2492 13.3141 64.1221 13.4877C64.995 13.6613 65.8998 13.5722 66.7221 13.2317C67.5443 12.8912 68.2471 12.3146 68.7416 11.5747C69.2361 10.8349 69.5 9.9651 69.5 9.07532C69.5013 8.48415 69.3858 7.89855 69.1601 7.35213C68.9345 6.80571 68.603 6.30924 68.1849 5.89122C67.7668 5.4732 67.2702 5.14187 66.7236 4.91625C66.1771 4.69062 65.5913 4.57516 65 4.57648ZM65 11.8246C64.4561 11.8246 63.9244 11.6634 63.4722 11.3613C63.0199 11.0592 62.6675 10.6298 62.4593 10.1274C62.2512 9.62506 62.1967 9.07227 62.3028 8.53896C62.4089 8.00565 62.6709 7.51577 63.0555 7.13127C63.4401 6.74678 63.9301 6.48493 64.4635 6.37885C64.997 6.27277 65.5499 6.32722 66.0524 6.5353C66.5549 6.74339 66.9844 7.09577 67.2865 7.54789C67.5887 8.00001 67.75 8.53156 67.75 9.07532C67.75 9.80447 67.4603 10.5038 66.9445 11.0194C66.4288 11.535 65.7293 11.8246 65 11.8246Z" fill="#949494"/>
</svg>
