<svg width="277" height="216" viewBox="0 0 277 216" fill="none" xmlns="http://www.w3.org/2000/svg">
<path d="M0 20C0 8.95431 8.95431 0 20 0H257C268.046 0 277 8.95431 277 20V196C277 207.046 268.046 216 257 216H20C8.9543 216 0 207.046 0 196V20Z" fill="url(#paint0_linear_206_267)" fill-opacity="0.2"/>
<path d="M0 20C0 8.95431 8.95431 0 20 0H257C268.046 0 277 8.95431 277 20V196C277 207.046 268.046 216 257 216H20C8.9543 216 0 207.046 0 196V20Z" fill="url(#paint1_linear_206_267)" fill-opacity="0.71"/>
<defs>
<linearGradient id="paint0_linear_206_267" x1="138.5" y1="0" x2="138.5" y2="216" gradientUnits="userSpaceOnUse">
<stop stop-color="white"/>
<stop offset="1" stop-color="#CDC8C8" stop-opacity="0"/>
</linearGradient>
<linearGradient id="paint1_linear_206_267" x1="215.223" y1="216" x2="215.223" y2="-1.0734e-05" gradientUnits="userSpaceOnUse">
<stop/>
<stop offset="1" stop-color="white" stop-opacity="0"/>
</linearGradient>
</defs>
</svg>
